<svg id="visual" viewBox="0 0 675 900" width="675" height="900" xmlns="http://www.w3.org/2000/svg" xmlns:xlink="http://www.w3.org/1999/xlink" version="1.1"><path d="M0 145L37.5 146.5C75 148 150 151 225 142C300 133 375 112 450 107.5C525 103 600 115 637.5 121L675 127L675 0L637.5 0C600 0 525 0 450 0C375 0 300 0 225 0C150 0 75 0 37.5 0L0 0Z" fill="#fcd7d7"></path><path d="M0 379L37.5 386.5C75 394 150 409 225 430C300 451 375 478 450 464.5C525 451 600 397 637.5 370L675 343L675 125L637.5 119C600 113 525 101 450 105.5C375 110 300 131 225 140C150 149 75 146 37.5 144.5L0 143Z" fill="#facaca"></path><path d="M0 766L37.5 752.5C75 739 150 712 225 718C300 724 375 763 450 757C525 751 600 700 637.5 674.5L675 649L675 341L637.5 368C600 395 525 449 450 462.5C375 476 300 449 225 428C150 407 75 392 37.5 384.5L0 377Z" fill="#f9bbbb"></path><path d="M0 901L37.5 901C75 901 150 901 225 901C300 901 375 901 450 901C525 901 600 901 637.5 901L675 901L675 647L637.5 672.5C600 698 525 749 450 755C375 761 300 722 225 716C150 710 75 737 37.5 750.5L0 764Z" fill="#f9aaa9"></path></svg>