<?xml version="1.0" standalone="no"?>
<svg xmlns:xlink="http://www.w3.org/1999/xlink" id="wave" style="transform:rotate(0deg); transition: 0.3s" viewBox="0 0 1440 490" version="1.1" xmlns="http://www.w3.org/2000/svg"><defs><linearGradient id="sw-gradient-0" x1="0" x2="0" y1="1" y2="0"><stop stop-color="rgba(255, 50.471, 99.353, 1)" offset="0%"/><stop stop-color="rgba(255, 210.2, 115.262, 1)" offset="100%"/></linearGradient></defs><path style="transform:translate(0, 0px); opacity:1" fill="url(#sw-gradient-0)" d="M0,294L60,302.2C120,310,240,327,360,294C480,261,600,180,720,138.8C840,98,960,98,1080,138.8C1200,180,1320,261,1440,285.8C1560,310,1680,278,1800,220.5C1920,163,2040,82,2160,106.2C2280,131,2400,261,2520,294C2640,327,2760,261,2880,228.7C3000,196,3120,196,3240,236.8C3360,278,3480,359,3600,367.5C3720,376,3840,310,3960,236.8C4080,163,4200,82,4320,89.8C4440,98,4560,196,4680,228.7C4800,261,4920,229,5040,220.5C5160,212,5280,229,5400,228.7C5520,229,5640,212,5760,245C5880,278,6000,359,6120,326.7C6240,294,6360,147,6480,114.3C6600,82,6720,163,6840,228.7C6960,294,7080,343,7200,334.8C7320,327,7440,261,7560,228.7C7680,196,7800,196,7920,220.5C8040,245,8160,294,8280,269.5C8400,245,8520,147,8580,98L8640,49L8640,490L8580,490C8520,490,8400,490,8280,490C8160,490,8040,490,7920,490C7800,490,7680,490,7560,490C7440,490,7320,490,7200,490C7080,490,6960,490,6840,490C6720,490,6600,490,6480,490C6360,490,6240,490,6120,490C6000,490,5880,490,5760,490C5640,490,5520,490,5400,490C5280,490,5160,490,5040,490C4920,490,4800,490,4680,490C4560,490,4440,490,4320,490C4200,490,4080,490,3960,490C3840,490,3720,490,3600,490C3480,490,3360,490,3240,490C3120,490,3000,490,2880,490C2760,490,2640,490,2520,490C2400,490,2280,490,2160,490C2040,490,1920,490,1800,490C1680,490,1560,490,1440,490C1320,490,1200,490,1080,490C960,490,840,490,720,490C600,490,480,490,360,490C240,490,120,490,60,490L0,490Z"/></svg>